<?xml version="1.0" encoding="UTF-8"?>
<svg id="Layer_1" xmlns="http://www.w3.org/2000/svg" viewBox="0 0 459.09 211.59">
  <defs>
    <style>
      .cls-1 {
        fill: #ffffff;
      }
    </style>
  </defs>
  <path class="cls-1" d="M120.31,0h38.23v207.44h-38.23v-17.48c-11.26,14.52-27.26,21.63-48.01,21.63s-37.04-7.41-51.27-22.52C7.11,173.95,0,155.28,0,133.35s7.11-40.3,21.04-55.42c14.22-15.11,31.41-22.82,51.27-22.82s36.75,7.11,48.01,21.63V0ZM79.42,175.14c11.85,0,21.63-3.85,29.34-11.56,7.71-8,11.56-18.08,11.56-30.23s-3.85-22.23-11.56-29.93c-7.71-8-17.48-11.85-29.34-11.85s-21.63,3.85-29.63,11.85-11.56,17.78-11.56,29.93,3.85,22.23,11.56,30.23c8,7.71,17.78,11.56,29.63,11.56Z"/>
  <path class="cls-1" d="M302.92,59.27h38.23v148.17h-38.23v-17.48c-11.56,14.52-27.56,21.63-48.3,21.63s-36.75-7.41-50.97-22.52c-13.93-15.11-21.04-33.78-21.04-55.71s7.11-40.3,21.04-55.42c14.22-15.11,31.12-22.82,50.97-22.82s36.75,7.11,48.3,21.63v-17.48ZM261.73,175.14c11.85,0,21.63-3.85,29.34-11.56s11.85-18.08,11.85-30.23-3.85-22.23-11.85-29.93c-7.71-8-17.48-11.85-29.34-11.85s-21.63,3.85-29.34,11.85c-7.71,7.71-11.56,17.78-11.56,29.93s3.85,22.23,11.56,30.23c7.71,7.71,17.48,11.56,29.34,11.56Z"/>
  <path class="cls-1" d="M414.04,84.75c7.11-18.97,24.89-28.45,45.04-28.45v42.67c-11.56-1.48-22.23.89-31.41,7.11-9.19,6.22-13.63,16.3-13.63,30.52v70.83h-38.23V59.27h38.23v25.49Z"/>
</svg>